<svg width="63" height="23" viewBox="0 0 63 23" fill="none" xmlns="http://www.w3.org/2000/svg">
<path d="M14.52 19.09C14.1 19.51 13.43 19.96 12.51 20.44C11.61 20.92 10.62 21.33 9.54 21.67C8.48 21.99 7.49 22.15 6.57 22.15C5.87 22.15 5.04 21.83 4.08 21.19C3.12 20.53 2.29 19.75 1.59 18.85C0.91 17.95 0.57 17.15 0.57 16.45C0.59 14.31 0.95 12.01 1.65 9.55C2.37 7.09 3.44 5 4.86 3.28C6.3 1.56 8.03 0.699999 10.05 0.699999C11.11 0.699999 12.09 0.999999 12.99 1.6C13.91 2.2 14.63 2.94 15.15 3.82C15.67 4.7 15.93 5.53 15.93 6.31C15.95 7.13 15.67 7.76 15.09 8.2C14.51 8.62 13.78 8.83 12.9 8.83C12.26 8.83 11.62 8.71 10.98 8.47C11 8.11 11.01 7.6 11.01 6.94C11.01 6.2 10.95 5.65 10.83 5.29C10.71 4.93 10.48 4.75 10.14 4.75C9.46 4.75 8.76 5.45 8.04 6.85C7.34 8.25 6.74 9.97 6.24 12.01C5.76 14.05 5.5 15.92 5.46 17.62C6.78 17.38 7.99 16.99 9.09 16.45C10.21 15.89 11.19 15.25 12.03 14.53C12.93 14.75 13.62 15.16 14.1 15.76C14.6 16.34 14.85 16.99 14.85 17.71C14.85 18.15 14.74 18.61 14.52 19.09ZM30.7692 14.53C30.7892 14.85 30.8592 15.66 30.9792 16.96C31.1192 18.24 31.1892 19.31 31.1892 20.17C31.1892 21.29 31.0592 21.89 30.7992 21.97C30.7192 21.99 30.5892 22 30.4092 22C29.9692 22 29.4192 21.9 28.7592 21.7C28.1192 21.48 27.5392 21.21 27.0192 20.89C26.5192 20.57 26.2292 20.26 26.1492 19.96C26.0692 19.66 26.0292 18.4 26.0292 16.18C23.8692 16.44 22.4492 16.6 21.7692 16.66C21.2292 18.24 20.6092 19.97 19.9092 21.85C19.3692 21.97 18.8692 22.03 18.4092 22.03C17.6092 22.03 16.9292 21.84 16.3692 21.46C15.8292 21.06 15.4692 20.46 15.2892 19.66L15.8892 18.31C18.0892 13.41 19.9892 9.3 21.5892 5.98C23.2092 2.66 24.2592 0.999999 24.7392 0.999999C25.1192 0.999999 25.6692 1.14 26.3892 1.42C27.1292 1.7 27.7892 2.04 28.3692 2.44C28.9692 2.84 29.3092 3.2 29.3892 3.52C29.5292 4.08 29.7192 5.25 29.9592 7.03C30.1992 8.81 30.3892 10.53 30.5292 12.19L30.7692 14.53ZM25.9392 5.68C25.0592 7.76 24.1892 9.99 23.3292 12.37C24.2492 12.31 25.1592 12.22 26.0592 12.1C26.0592 9.34 26.0192 7.2 25.9392 5.68ZM42.1221 8.47C42.2821 7.47 42.3621 6.67 42.3621 6.07C42.3621 5.65 42.3221 5.32 42.2421 5.08C42.1821 4.84 42.1021 4.72 42.0021 4.72C41.7021 4.72 41.3521 4.97 40.9521 5.47C40.5721 5.97 40.2421 6.57 39.9621 7.27C39.7021 7.95 39.5721 8.56 39.5721 9.1C39.5721 9.78 39.9021 10.47 40.5621 11.17C41.2421 11.85 42.2321 12.69 43.5321 13.69C44.5121 14.41 45.2421 15.01 45.7221 15.49C46.2021 15.95 46.4521 16.37 46.4721 16.75C46.4921 17.59 46.0521 18.42 45.1521 19.24C44.2521 20.04 43.1221 20.7 41.7621 21.22C40.4221 21.74 39.1721 22 38.0121 22C37.1121 22 36.1821 21.78 35.2221 21.34C34.2621 20.88 33.4621 20.35 32.8221 19.75C32.1821 19.13 31.8521 18.59 31.8321 18.13C31.7921 17.25 32.0821 16.54 32.7021 16C33.3221 15.44 34.1521 15.16 35.1921 15.16C35.7121 15.16 36.2421 15.23 36.7821 15.37C37.0221 16.69 37.2321 17.64 37.4121 18.22C38.5921 17.92 39.8721 17.4 41.2521 16.66C36.7921 13.28 34.5621 10.64 34.5621 8.74C34.5621 7.82 34.9021 6.72 35.5821 5.44C36.2621 4.14 37.1621 3.03 38.2821 2.11C39.4021 1.17 40.5821 0.699999 41.8221 0.699999C42.7421 0.699999 43.6321 1.01 44.4921 1.63C45.3521 2.25 46.0521 3.01 46.5921 3.91C47.1321 4.81 47.4021 5.65 47.4021 6.43C47.4021 7.19 47.0921 7.8 46.4721 8.26C45.8721 8.7 45.1221 8.92 44.2221 8.92C43.5221 8.92 42.8221 8.77 42.1221 8.47ZM61.4904 0.999999C61.8704 1.22 62.1504 1.53 62.3304 1.93C62.5304 2.31 62.6304 2.73 62.6304 3.19C62.6304 3.59 62.5504 3.99 62.3904 4.39C62.2304 4.79 62.0204 5.12 61.7604 5.38C59.1804 5.42 57.0304 5.52 55.3104 5.68C54.9704 6.9 54.6504 8.26 54.3504 9.76C56.3504 9.6 58.0404 9.36 59.4204 9.04C59.8204 9.28 60.1204 9.6 60.3204 10C60.5404 10.38 60.6504 10.8 60.6504 11.26C60.6504 11.68 60.5604 12.08 60.3804 12.46C60.2204 12.82 59.9904 13.11 59.6904 13.33C59.3104 13.37 58.9404 13.4 58.5804 13.42C58.2204 13.44 57.8704 13.46 57.5304 13.48L53.6604 13.75L53.1204 16.45L52.8204 17.89C54.0404 17.77 55.1404 17.61 56.1204 17.41C57.1204 17.19 58.1704 16.89 59.2704 16.51C59.8304 16.77 60.2604 17.14 60.5604 17.62C60.8804 18.08 61.0404 18.59 61.0404 19.15C61.0404 19.95 60.7304 20.66 60.1104 21.28C58.8704 21.52 57.4804 21.7 55.9404 21.82C54.4004 21.94 52.9704 22 51.6504 22C51.2904 22 50.8204 21.82 50.2404 21.46C49.6604 21.1 49.1404 20.68 48.6804 20.2C48.2404 19.72 48.0204 19.31 48.0204 18.97C48.0204 18.67 48.2504 17.51 48.7104 15.49C49.0504 14.01 49.3804 12.47 49.7004 10.87C49.9204 9.77 50.0304 9.22 50.0304 9.22C50.3504 7.66 50.5604 6.53 50.6604 5.83L49.4004 5.92C49.0204 5.72 48.7104 5.43 48.4704 5.05C48.2504 4.65 48.1404 4.22 48.1404 3.76C48.1404 2.96 48.4504 2.25 49.0704 1.63C51.8104 1.59 54.1904 1.53 56.2104 1.45C58.2504 1.37 60.0104 1.22 61.4904 0.999999Z" fill="#B46AFE"/>
</svg>
