<svg width="159" height="159" viewBox="0 0 159 159" fill="none" xmlns="http://www.w3.org/2000/svg">
<path d="M28.1704 76.2714C47.3704 66.6714 68.1704 75.4714 76.1704 81.0714C81.9304 84.2947 88.9704 82.4144 91.7704 81.0714C119.37 69.0714 157.77 94.2714 150.57 95.4714C143.37 96.6714 144.57 105.071 128.97 113.471C116.49 120.191 90.1704 119.471 78.5704 118.271C61.7704 116.671 25.5304 109.871 14.9704 95.4714C1.7704 77.4714 4.1704 88.2714 28.1704 76.2714Z" fill="#FAA1A1"/>
<path d="M28.1704 76.2714C47.3704 66.6714 68.1704 75.4714 76.1704 81.0714C81.9304 84.2947 88.9704 82.4144 91.7704 81.0714C119.37 69.0714 157.77 94.2714 150.57 95.4714C143.37 96.6714 140.2 97.2 124.6 105.6C112.12 112.32 87 103.2 75.4 102C58.6 100.4 28.1704 108 16.6 94.8C1.88668 78.0144 4.1704 88.2714 28.1704 76.2714Z" fill="#FFCDCD"/>
<circle cx="83.8" cy="69.6" r="31.2" fill="url(#paint0_linear_18_562)"/>
<circle cx="83.8" cy="69.6" r="31.2" fill="url(#paint1_radial_18_562)" fill-opacity="0.2"/>
<path d="M46.5129 84.4549C57.3284 80.3923 68.3264 85.6693 72.4735 88.8156C75.4897 90.6734 79.3939 90.0103 80.969 89.4465C96.4488 84.5138 116.418 98.7694 112.452 99.0831C108.486 99.3968 105.477 98.8331 96.6674 102.436C89.6194 105.319 78.7458 101.361 72.4735 100.287C63.3843 98.8013 47.319 101.545 42.1072 93.8593C35.5924 84.2522 32.9936 89.5332 46.5129 84.4549Z" fill="#FFCDCD"/>
<defs>
<linearGradient id="paint0_linear_18_562" x1="141.4" y1="42" x2="83.8" y2="100.8" gradientUnits="userSpaceOnUse">
<stop stop-color="#F257FF"/>
<stop offset="0.348958" stop-color="#00F0FF"/>
<stop offset="1" stop-color="#F41DDE"/>
</linearGradient>
<radialGradient id="paint1_radial_18_562" cx="0" cy="0" r="1" gradientUnits="userSpaceOnUse" gradientTransform="translate(75.4 60) rotate(37.5686) scale(39.3629)">
<stop offset="0.197917" stop-color="#003E9C" stop-opacity="0"/>
<stop offset="1" stop-color="#003E9C"/>
</radialGradient>
</defs>
</svg>
