<svg width="198" height="229" viewBox="0 0 198 229" fill="none" xmlns="http://www.w3.org/2000/svg">
<path d="M133.05 165.689C133.277 169.03 133.856 171.857 134.333 174.101C134.358 174.221 134.383 174.339 134.408 174.454C134.617 175.436 134.794 176.271 134.915 177.004C135.051 177.833 135.091 178.41 135.052 178.813C135.015 179.183 134.926 179.264 134.911 179.278L134.91 179.279C134.877 179.31 134.698 179.451 134.093 179.509C132.834 179.628 130.614 179.316 126.823 178.393C121.011 175.724 117.243 175.223 113.678 175.196C112.759 175.19 111.882 175.212 111.007 175.234C108.489 175.298 105.981 175.361 102.485 174.735C93.9929 173.213 88.0562 174.298 78.5113 177.584C74.1076 179.101 71.453 179.917 69.8793 180.175C69.5247 180.233 69.2597 180.256 69.0655 180.259C69.0781 180.082 69.1106 179.829 69.1773 179.471C69.2464 179.101 69.3288 178.725 69.4233 178.294C69.4981 177.952 69.5806 177.575 69.6701 177.139C70.0536 175.271 70.4432 172.847 70.2473 169.975C69.8107 163.577 69.5448 149.605 73.0767 137.035C76.6134 124.447 83.7703 113.784 97.8946 112.82C112.019 111.856 120.558 121.448 125.772 133.439C130.979 145.414 132.613 159.292 133.05 165.689Z" fill="#AA61A7" stroke="#C975C6" stroke-width="3"/>
<path d="M117 158.5C111.537 172.673 104.051 161.5 99.0001 161.5C93.9489 161.5 89.4375 172 82.5 158.5C78.079 149.897 79.7502 118 99.0002 118C118.25 118 120.479 149.475 117 158.5Z" fill="#EAEAEA"/>
<path d="M45 91C45 89.3431 46.3431 88 48 88H54V103H48C46.3431 103 45 101.657 45 100V91Z" fill="#FFBD3E"/>
<path d="M153 91C153 89.3431 151.657 88 150 88H144V103H150C151.657 103 153 101.657 153 100V91Z" fill="#FFBD3E"/>
<rect x="54" y="64" width="90" height="63" rx="9" fill="#F2F2F2"/>
<path d="M54.8327 69H143.167C141.252 58.1356 131.541 52.4788 128.423 44C124.854 34.2966 134.676 31.1841 129.885 14.5627C129.623 13.6538 128.651 13.017 127.905 13.5978C125.613 15.381 126.14 20.4365 112.731 23C98.0192 24 83.6303 27.6345 74.4808 38C66.512 48 62.9478 53.2646 54.8327 69Z" fill="#C975C6"/>
<rect x="48" y="61" width="102" height="12" rx="6" fill="#C975C6"/>
<rect x="56" y="57" width="86" height="4" rx="2" fill="#AA61A7"/>
<path d="M110 118.344C110 121.468 105.075 124 99 124C92.9249 124 88 121.468 88 118.344C88 115.883 91.0559 113.79 95.3228 113.012C96.4726 112.802 97.7104 114 99 114C100.29 114 101.527 112.802 102.677 113.012C106.944 113.79 110 115.883 110 118.344Z" fill="#FF9292"/>
<line x1="96" y1="95.5" x2="102" y2="95.5" stroke="#FFDB1F" stroke-width="3"/>
<path fill-rule="evenodd" clip-rule="evenodd" d="M72 104.5C72 103.672 72.6716 103 73.5 103H85.5C86.3284 103 87 103.672 87 104.5C87 105.328 86.3284 106 85.5 106H73.5C72.6716 106 72 105.328 72 104.5Z" fill="black"/>
<path fill-rule="evenodd" clip-rule="evenodd" d="M111 104.5C111 103.672 111.672 103 112.5 103H124.5C125.328 103 126 103.672 126 104.5C126 105.328 125.328 106 124.5 106H112.5C111.672 106 111 105.328 111 104.5Z" fill="black"/>
<path d="M111.712 133.348C109.54 133.842 104.588 133.424 102.16 127.796C101.431 126.105 99.2595 126.229 98.5555 128.191C97.1475 132.116 103.75 140.052 108.304 139.273" stroke="#C1C1C1" stroke-width="1.8" stroke-linecap="round"/>
<path d="M102.122 135.7C95.6702 137.86 91.3687 134.8 90.0245 133L87 134.8L88.0082 139.3C91.0326 142.9 102.677 142 104.693 138.4C105.702 136.6 104.062 135.051 102.122 135.7Z" fill="#EAEAEA"/>
<path d="M90.7836 133C92.0597 134.886 96.1431 138.091 102.268 135.828C104.109 135.148 105.666 136.771 104.709 138.657C102.795 142.428 91.7407 143.37 88.8695 139.599" stroke="#C1C1C1" stroke-width="1.8" stroke-linecap="round"/>
<path d="M96.7439 44.416C96.7439 44 96.8799 43.656 97.1519 43.384C97.4239 43.096 97.7679 42.952 98.1839 42.952C98.8399 42.952 99.4319 42.856 99.9599 42.664C100.488 42.456 100.904 42.128 101.208 41.68C101.528 41.232 101.688 40.64 101.688 39.904C101.688 39.36 101.552 38.88 101.28 38.464C101.024 38.048 100.664 37.72 100.2 37.48C99.7519 37.24 99.2399 37.12 98.6639 37.12C98.2159 37.12 97.7919 37.2 97.3919 37.36C97.0079 37.52 96.6559 37.736 96.3359 38.008C96.0799 38.232 95.7679 38.4 95.3999 38.512C95.0479 38.608 94.6879 38.52 94.3199 38.248C93.9359 37.96 93.7279 37.616 93.6959 37.216C93.6639 36.816 93.8159 36.448 94.1519 36.112C94.7279 35.52 95.3999 35.064 96.1679 34.744C96.9519 34.408 97.7839 34.24 98.6639 34.24C99.7679 34.24 100.76 34.496 101.64 35.008C102.536 35.504 103.248 36.176 103.776 37.024C104.304 37.872 104.568 38.832 104.568 39.904C104.568 40.704 104.448 41.416 104.208 42.04C103.968 42.648 103.624 43.176 103.176 43.624C102.744 44.056 102.232 44.408 101.64 44.68C101.064 44.936 100.432 45.12 99.7439 45.232C99.7119 45.248 99.6799 45.264 99.6479 45.28C99.6319 45.296 99.6239 45.32 99.6239 45.352V46.24C99.6239 46.656 99.4879 47.008 99.2159 47.296C98.9439 47.568 98.5999 47.704 98.1839 47.704C97.7679 47.704 97.4239 47.568 97.1519 47.296C96.8799 47.008 96.7439 46.656 96.7439 46.24V44.416ZM98.0639 52C97.5999 52 97.2399 51.88 96.9839 51.64C96.7439 51.384 96.6239 51.024 96.6239 50.56V50.152C96.6239 49.688 96.7439 49.336 96.9839 49.096C97.2399 48.84 97.5999 48.712 98.0639 48.712H98.3759C98.8399 48.712 99.1919 48.84 99.4319 49.096C99.6879 49.336 99.8159 49.688 99.8159 50.152V50.56C99.8159 51.024 99.6879 51.384 99.4319 51.64C99.1919 51.88 98.8399 52 98.3759 52H98.0639Z" fill="#692E66"/>
<ellipse cx="69" cy="112" rx="6" ry="3" fill="#FFCDCD"/>
<ellipse cx="129" cy="112" rx="6" ry="3" fill="#FFCDCD"/>
<rect x="49.5" y="80.5" width="45" height="36" rx="7.5" stroke="#FFDB1F" stroke-width="3"/>
<rect x="103.5" y="80.5" width="45" height="36" rx="7.5" stroke="#FFDB1F" stroke-width="3"/>
<circle cx="129" cy="13" r="4" fill="#FFDB5D"/>
<path d="M46.3704 164.271C65.5704 154.671 86.3704 163.471 94.3704 169.071C100.13 172.295 107.17 170.414 109.97 169.071C137.57 157.071 175.97 182.271 168.77 183.471C161.57 184.671 162.77 193.071 147.17 201.471C134.69 208.191 108.37 207.471 96.7704 206.271C79.9704 204.671 43.7304 197.871 33.1704 183.471C19.9704 165.471 22.3704 176.271 46.3704 164.271Z" fill="#FAA1A1"/>
<path d="M46.3704 164.271C65.5704 154.671 86.3704 163.471 94.3704 169.071C100.13 172.295 107.17 170.414 109.97 169.071C137.57 157.071 175.97 182.271 168.77 183.471C161.57 184.671 158.4 185.2 142.8 193.6C130.32 200.32 105.2 191.2 93.6 190C76.8 188.4 46.3704 196 34.8 182.8C20.0867 166.014 22.3704 176.271 46.3704 164.271Z" fill="#FFCDCD"/>
<circle cx="102.5" cy="151.5" r="52.5" fill="url(#paint0_radial_84_380)"/>
<circle cx="102" cy="157.6" r="31.2" fill="url(#paint1_linear_84_380)"/>
<circle cx="102" cy="157.6" r="31.2" fill="url(#paint2_radial_84_380)" fill-opacity="0.2"/>
<path d="M64.7129 172.455C75.5284 168.392 86.5264 173.669 90.6735 176.816C93.6897 178.673 97.5939 178.01 99.169 177.446C114.649 172.514 134.618 186.769 130.652 187.083C126.686 187.397 123.677 186.833 114.867 190.436C107.819 193.319 96.9458 189.361 90.6735 188.287C81.5843 186.801 65.519 189.545 60.3072 181.859C53.7924 172.252 51.1936 177.533 64.7129 172.455Z" fill="#FFCDCD"/>
<defs>
<radialGradient id="paint0_radial_84_380" cx="0" cy="0" r="1" gradientUnits="userSpaceOnUse" gradientTransform="translate(102.5 151.5) rotate(90) scale(52.5)">
<stop offset="0.109375" stop-color="#F367FF"/>
<stop offset="0.932292" stop-color="#FCD6FF" stop-opacity="0"/>
</radialGradient>
<linearGradient id="paint1_linear_84_380" x1="159.6" y1="130" x2="102" y2="188.8" gradientUnits="userSpaceOnUse">
<stop stop-color="#F257FF"/>
<stop offset="0.348958" stop-color="#00F0FF"/>
<stop offset="1" stop-color="#F41DDE"/>
</linearGradient>
<radialGradient id="paint2_radial_84_380" cx="0" cy="0" r="1" gradientUnits="userSpaceOnUse" gradientTransform="translate(93.6 148) rotate(37.5686) scale(39.3629)">
<stop offset="0.197917" stop-color="#003E9C" stop-opacity="0"/>
<stop offset="1" stop-color="#003E9C"/>
</radialGradient>
</defs>
</svg>
