<svg xmlns="http://www.w3.org/2000/svg" width="141" height="230" viewBox="0 0 141 230" fill="none">
  <path d="M114.286 204.062C114.582 208.398 115.334 212.067 115.952 214.98C115.985 215.136 116.017 215.288 116.049 215.438C116.32 216.712 116.551 217.796 116.707 218.747C116.884 219.824 116.937 220.572 116.885 221.096C116.837 221.576 116.722 221.682 116.702 221.7L116.701 221.701C116.658 221.741 116.426 221.924 115.641 221.999C114.007 222.153 111.125 221.749 106.205 220.55C98.6612 217.086 93.7701 216.436 89.1431 216.401C87.9491 216.393 86.8113 216.421 85.675 216.45C82.407 216.533 79.152 216.615 74.6138 215.802C63.5916 213.827 55.886 215.235 43.4968 219.501C37.7809 221.469 34.3354 222.529 32.2927 222.863C31.8324 222.939 31.4885 222.969 31.2364 222.972C31.2528 222.743 31.295 222.415 31.3816 221.95C31.4712 221.47 31.5781 220.982 31.7008 220.422C31.798 219.978 31.905 219.489 32.0212 218.923C32.519 216.498 33.0247 213.352 32.7703 209.624C32.2037 201.32 31.8585 183.185 36.4429 166.868C41.0335 150.529 50.323 136.689 68.6561 135.438C86.9891 134.187 98.0726 146.637 104.84 162.201C111.598 177.744 113.72 195.758 114.286 204.062Z" fill="#AA61A7" stroke="#C975C6" stroke-width="3.89394"/>
  <path d="M93.4544 194.73C86.3641 213.126 76.6472 198.624 70.0909 198.624C63.5345 198.624 57.6788 212.253 48.6741 194.73C42.9358 183.563 45.1049 142.162 70.091 142.162C95.0771 142.162 97.9694 183.015 93.4544 194.73Z" fill="#EAEAEA"/>
  <path d="M-6.10352e-05 107.116C-6.10352e-05 104.966 1.74332 103.222 3.89388 103.222H11.6818V122.692H3.89388C1.74331 122.692 -6.10352e-05 120.949 -6.10352e-05 118.798V107.116Z" fill="#FFBD3E"/>
  <path d="M140.182 107.116C140.182 104.966 138.438 103.222 136.288 103.222H128.5V122.692H136.288C138.438 122.692 140.182 120.949 140.182 118.798V107.116Z" fill="#FFBD3E"/>
  <rect x="11.6817" y="72.0707" width="116.818" height="81.7727" rx="11.6818" fill="#F2F2F2"/>
  <path d="M84.3685 142.608C84.3685 146.663 77.9762 149.95 70.0908 149.95C62.2054 149.95 55.813 146.663 55.813 142.608C55.813 139.414 59.7795 136.697 65.3178 135.687C66.8103 135.415 68.4169 136.97 70.0908 136.97C71.7646 136.97 73.3712 135.415 74.8637 135.687C80.402 136.697 84.3685 139.414 84.3685 142.608Z" fill="#FF9292"/>
  <path fill-rule="evenodd" clip-rule="evenodd" d="M36.3496 124.378C35.8119 123.447 36.131 122.256 37.0622 121.718L50.5512 113.931C51.4824 113.393 52.6732 113.712 53.2108 114.643C53.7485 115.574 53.4294 116.765 52.4982 117.303L39.0092 125.091C38.078 125.628 36.8872 125.309 36.3496 124.378Z" fill="black"/>
  <path fill-rule="evenodd" clip-rule="evenodd" d="M86.9707 115.292C87.5084 114.361 88.6991 114.042 89.6303 114.58L103.119 122.367C104.051 122.905 104.37 124.096 103.832 125.027C103.294 125.958 102.104 126.277 101.172 125.74L87.6834 117.952C86.7521 117.414 86.4331 116.223 86.9707 115.292Z" fill="black"/>
  <path d="M86.5908 162.083C83.7711 162.724 77.344 162.181 74.193 154.877C73.2459 152.681 70.4277 152.842 69.514 155.389C67.6864 160.484 76.2559 170.784 82.1675 169.774" stroke="#C1C1C1" stroke-width="2.33636" stroke-linecap="round"/>
  <path d="M74.1435 165.136C65.7687 167.939 60.1855 163.968 58.4407 161.631L54.515 163.968L55.8236 169.809C59.7493 174.481 74.8638 173.313 77.4808 168.64C78.7893 166.304 76.6607 164.293 74.1435 165.136Z" fill="#EAEAEA"/>
  <path d="M59.426 161.631C61.0824 164.079 66.3826 168.239 74.3329 165.302C76.7225 164.42 78.7431 166.526 77.501 168.973C75.0167 173.868 60.6683 175.092 56.9416 170.197" stroke="#C1C1C1" stroke-width="2.33636" stroke-linecap="round"/>
  <ellipse cx="31.1514" cy="134.374" rx="7.78788" ry="3.89394" fill="#FFCDCD"/>
  <ellipse cx="109.03" cy="134.374" rx="7.78788" ry="3.89394" fill="#FFCDCD"/>
  <line x1="66.1969" y1="112.957" x2="73.9848" y2="112.957" stroke="#FFDB1F" stroke-width="3.89394"/>
  <rect x="5.84083" y="93.4874" width="58.4091" height="46.7273" rx="9.73485" stroke="#FFDB1F" stroke-width="3.89394"/>
  <rect x="75.9317" y="93.4874" width="58.4091" height="46.7273" rx="9.73485" stroke="#FFDB1F" stroke-width="3.89394"/>
  <path d="M12.7626 78.5606H127.419C124.933 64.4588 112.329 57.1164 108.281 46.1111C103.649 33.5163 116.397 29.4764 110.179 7.9021C109.839 6.72231 108.578 5.89576 107.609 6.64965C104.634 8.96415 105.318 15.5262 87.9132 18.8535C68.8179 20.1515 50.1414 24.869 38.2654 38.3232C27.9222 51.303 23.2958 58.1363 12.7626 78.5606Z" fill="#C975C6"/>
  <rect x="3.89386" y="68.1768" width="132.394" height="15.5758" rx="7.78788" fill="#C975C6"/>
  <rect x="14.2777" y="62.9849" width="111.626" height="5.19192" rx="2.59596" fill="#AA61A7"/>
  <path d="M67.1625 46.6511C67.1625 46.1111 67.339 45.6646 67.692 45.3115C68.0451 44.9377 68.4916 44.7508 69.0316 44.7508C69.883 44.7508 70.6514 44.6262 71.3368 44.377C72.0221 44.107 72.5621 43.6813 72.9566 43.0998C73.372 42.5183 73.5797 41.7499 73.5797 40.7946C73.5797 40.0885 73.4032 39.4654 73.0501 38.9255C72.7178 38.3855 72.2505 37.9598 71.6483 37.6483C71.0668 37.3367 70.4022 37.181 69.6546 37.181C69.0731 37.181 68.5227 37.2848 68.0036 37.4925C67.5051 37.7002 67.0482 37.9805 66.6329 38.3336C66.3006 38.6243 65.8956 38.8424 65.418 38.9878C64.9611 39.1124 64.4938 38.9982 64.0162 38.6451C63.5177 38.2713 63.2478 37.8248 63.2062 37.3056C63.1647 36.7864 63.362 36.3087 63.7981 35.8726C64.5457 35.1042 65.418 34.5123 66.4148 34.097C67.4324 33.6609 68.5124 33.4428 69.6546 33.4428C71.0876 33.4428 72.3752 33.7751 73.5174 34.4397C74.6804 35.0835 75.6045 35.9557 76.2899 37.0564C76.9752 38.1571 77.3179 39.4031 77.3179 40.7946C77.3179 41.833 77.1621 42.7571 76.8506 43.5671C76.5391 44.3562 76.0926 45.0416 75.5111 45.6231C74.9503 46.1838 74.2858 46.6407 73.5174 46.9937C72.7697 47.326 71.9494 47.5648 71.0564 47.7102C71.0149 47.731 70.9733 47.7517 70.9318 47.7725C70.911 47.7933 70.9006 47.8244 70.9006 47.866V49.0186C70.9006 49.5585 70.7241 50.0154 70.3711 50.3892C70.018 50.7423 69.5715 50.9188 69.0316 50.9188C68.4916 50.9188 68.0451 50.7423 67.692 50.3892C67.339 50.0154 67.1625 49.5585 67.1625 49.0186V46.6511ZM68.8758 56.4949C68.2735 56.4949 67.8063 56.3392 67.474 56.0277C67.1625 55.6954 67.0067 55.2281 67.0067 54.6258V54.0963C67.0067 53.494 67.1625 53.0371 67.474 52.7256C67.8063 52.3933 68.2735 52.2272 68.8758 52.2272H69.2808C69.883 52.2272 70.3399 52.3933 70.6514 52.7256C70.9837 53.0371 71.1499 53.494 71.1499 54.0963V54.6258C71.1499 55.2281 70.9837 55.6954 70.6514 56.0277C70.3399 56.3392 69.883 56.4949 69.2808 56.4949H68.8758Z" fill="#692E66"/>
  <circle cx="108.939" cy="5.87374" r="5.19192" fill="#FFDB5D"/>
</svg>