<svg width="44" height="49" viewBox="0 0 44 49" fill="none" xmlns="http://www.w3.org/2000/svg">
<rect width="44" height="40" rx="4" fill="#9A9A9A"/>
<path fill-rule="evenodd" clip-rule="evenodd" d="M8 14.9032C8 17.2258 9.89474 19.5484 14 21C18.1053 19.5484 20 17.2258 20 14.9032C20 13.2998 18.5862 12 16.8421 12C15.5921 12 14.5118 12.6677 14 13.6362C13.4882 12.6677 12.4079 12 11.1579 12C9.41384 12 8 13.2998 8 14.9032Z" fill="white"/>
<path fill-rule="evenodd" clip-rule="evenodd" d="M24 14.9032C24 17.2258 25.8947 19.5484 30 21C34.1053 19.5484 36 17.2258 36 14.9032C36 13.2998 34.5862 12 32.8421 12C31.5921 12 30.5118 12.6677 30 13.6362C29.4882 12.6677 28.4079 12 27.1579 12C25.4138 12 24 13.2998 24 14.9032Z" fill="white"/>
<path d="M33 28.0784C33 31.0245 28.0751 32 22 32C15.9249 32 11 31.0245 11 28.0784C11 25.7557 14.061 23.7798 18.3333 23.0474C19.4802 22.8509 20.7143 24.0775 22 24.0775C23.6442 24.0775 24.9991 22.7338 26.4 23.0474C30.1751 23.8925 33 25.9296 33 28.0784Z" fill="white"/>
<path d="M22 49L16.8038 40L27.1962 40L22 49Z" fill="#9A9A9A"/>
</svg>
