<svg width="189" height="23" viewBox="0 0 189 23" fill="none" xmlns="http://www.w3.org/2000/svg">
<path d="M14.61 0.999999C14.99 0.999999 15.5 1.17 16.14 1.51C16.8 1.85 17.37 2.25 17.85 2.71C18.35 3.17 18.6 3.57 18.6 3.91C18.6 4.09 18.41 4.89 18.03 6.31C17.33 8.83 16.81 11.03 16.47 12.91C16.27 14.09 16.06 15.64 15.84 17.56C15.64 19.2 15.46 20.35 15.3 21.01C15.16 21.67 14.93 22 14.61 22C14.15 22 13.6 21.84 12.96 21.52C12.34 21.18 11.79 20.78 11.31 20.32C10.85 19.86 10.62 19.48 10.62 19.18C10.6 18.9 10.66 18.37 10.8 17.59C10.96 16.79 11.14 15.91 11.34 14.95L11.61 13.66C9.77 13.94 7.96 14.14 6.18 14.26C5.98 15.6 5.84 16.72 5.76 17.62C5.56 19.24 5.38 20.38 5.22 21.04C5.08 21.68 4.85 22 4.53 22C4.07 22 3.52 21.84 2.88 21.52C2.26 21.18 1.71 20.78 1.23 20.32C0.77 19.86 0.54 19.48 0.54 19.18C0.52 18.86 0.61 18.19 0.81 17.17C1.03 16.13 1.17 15.46 1.23 15.16C1.31 14.76 1.46 14.03 1.68 12.97C1.9 11.89 2.08 10.89 2.22 9.97L2.46 8.56C2.84 6.32 3.19 4.5 3.51 3.1C3.85 1.7 4.19 0.999999 4.53 0.999999C4.91 0.999999 5.42 1.17 6.06 1.51C6.72 1.85 7.29 2.25 7.77 2.71C8.27 3.17 8.52 3.57 8.52 3.91C8.52 4.09 8.33 4.89 7.95 6.31C7.87 6.63 7.73 7.17 7.53 7.93C7.33 8.69 7.15 9.4 6.99 10.06C8.85 9.92 10.65 9.73 12.39 9.49C12.43 9.21 12.47 8.99 12.51 8.83C12.87 6.61 13.22 4.75 13.56 3.25C13.9 1.75 14.25 0.999999 14.61 0.999999ZM33.3642 0.999999C33.7442 1.22 34.0242 1.53 34.2042 1.93C34.4042 2.31 34.5042 2.73 34.5042 3.19C34.5042 3.59 34.4242 3.99 34.2642 4.39C34.1042 4.79 33.8942 5.12 33.6342 5.38C31.0542 5.42 28.9042 5.52 27.1842 5.68C26.8442 6.9 26.5242 8.26 26.2242 9.76C28.2242 9.6 29.9142 9.36 31.2942 9.04C31.6942 9.28 31.9942 9.6 32.1942 10C32.4142 10.38 32.5242 10.8 32.5242 11.26C32.5242 11.68 32.4342 12.08 32.2542 12.46C32.0942 12.82 31.8642 13.11 31.5642 13.33C31.1842 13.37 30.8142 13.4 30.4542 13.42C30.0942 13.44 29.7442 13.46 29.4042 13.48L25.5342 13.75L24.9942 16.45L24.6942 17.89C25.9142 17.77 27.0142 17.61 27.9942 17.41C28.9942 17.19 30.0442 16.89 31.1442 16.51C31.7042 16.77 32.1342 17.14 32.4342 17.62C32.7542 18.08 32.9142 18.59 32.9142 19.15C32.9142 19.95 32.6042 20.66 31.9842 21.28C30.7442 21.52 29.3542 21.7 27.8142 21.82C26.2742 21.94 24.8442 22 23.5242 22C23.1642 22 22.6942 21.82 22.1142 21.46C21.5342 21.1 21.0142 20.68 20.5542 20.2C20.1142 19.72 19.8942 19.31 19.8942 18.97C19.8942 18.67 20.1242 17.51 20.5842 15.49C20.9242 14.01 21.2542 12.47 21.5742 10.87C21.7942 9.77 21.9042 9.22 21.9042 9.22C22.2242 7.66 22.4342 6.53 22.5342 5.83L21.2742 5.92C20.8942 5.72 20.5842 5.43 20.3442 5.05C20.1242 4.65 20.0142 4.22 20.0142 3.76C20.0142 2.96 20.3242 2.25 20.9442 1.63C23.6842 1.59 26.0642 1.53 28.0842 1.45C30.1242 1.37 31.8842 1.22 33.3642 0.999999ZM48.9192 14.53C48.9392 14.85 49.0092 15.66 49.1292 16.96C49.2692 18.24 49.3392 19.31 49.3392 20.17C49.3392 21.29 49.2092 21.89 48.9492 21.97C48.8692 21.99 48.7392 22 48.5592 22C48.1192 22 47.5692 21.9 46.9092 21.7C46.2692 21.48 45.6892 21.21 45.1692 20.89C44.6692 20.57 44.3792 20.26 44.2992 19.96C44.2192 19.66 44.1792 18.4 44.1792 16.18C42.0192 16.44 40.5992 16.6 39.9192 16.66C39.3792 18.24 38.7592 19.97 38.0592 21.85C37.5192 21.97 37.0192 22.03 36.5592 22.03C35.7592 22.03 35.0792 21.84 34.5192 21.46C33.9792 21.06 33.6192 20.46 33.4392 19.66L34.0392 18.31C36.2392 13.41 38.1392 9.3 39.7392 5.98C41.3592 2.66 42.4092 0.999999 42.8892 0.999999C43.2692 0.999999 43.8192 1.14 44.5392 1.42C45.2792 1.7 45.9392 2.04 46.5192 2.44C47.1192 2.84 47.4592 3.2 47.5392 3.52C47.6792 4.08 47.8692 5.25 48.1092 7.03C48.3492 8.81 48.5392 10.53 48.6792 12.19L48.9192 14.53ZM44.0892 5.68C43.2092 7.76 42.3392 9.99 41.4792 12.37C42.3992 12.31 43.3092 12.22 44.2092 12.1C44.2092 9.34 44.1692 7.2 44.0892 5.68ZM63.2332 22.18C61.8132 21.36 60.5532 20.34 59.4532 19.12C58.3532 17.9 57.4632 16.51 56.7832 14.95L56.6632 16.21C56.4632 18.15 56.2632 19.6 56.0632 20.56C55.8832 21.52 55.6232 22 55.2832 22C54.8232 22 54.2732 21.83 53.6332 21.49C53.0132 21.15 52.4632 20.75 51.9832 20.29C51.5232 19.83 51.2932 19.45 51.2932 19.15C51.2932 18.63 51.7832 15.98 52.7632 11.2C52.8832 10.64 53.0732 9.69 53.3332 8.35C53.6132 6.99 53.8032 6.01 53.9032 5.41L52.7932 5.59C52.1732 5.01 51.8632 4.28 51.8632 3.4C51.8632 2.78 52.0332 2.14 52.3732 1.48C53.9932 1.06 55.6332 0.849999 57.2932 0.849999C59.0532 0.849999 60.6832 1.08 62.1832 1.54C63.7032 2 64.9332 2.71 65.8732 3.67C66.8132 4.61 67.2832 5.79 67.2832 7.21C67.2832 8.87 66.6332 10.3 65.3332 11.5C64.0332 12.68 62.1232 13.47 59.6032 13.87C60.6032 14.81 61.6032 15.57 62.6032 16.15C63.6232 16.71 64.9032 17.25 66.4432 17.77C66.5232 18.09 66.5632 18.44 66.5632 18.82C66.5632 19.74 66.2832 20.5 65.7232 21.1C65.1632 21.7 64.3332 22.06 63.2332 22.18ZM57.3532 10.96C58.9332 10.8 60.2232 10.38 61.2232 9.7C62.2432 9.02 62.7532 8.21 62.7532 7.27C62.7532 6.67 62.4532 6.17 61.8532 5.77C61.2732 5.35 60.4832 5.14 59.4832 5.14C59.1232 5.14 58.7332 5.17 58.3132 5.23C57.9932 7.07 57.8432 7.95 57.8632 7.87C57.6832 8.85 57.5132 9.88 57.3532 10.96ZM82.9931 0.999999C83.3731 1.22 83.6531 1.53 83.8331 1.93C84.0331 2.31 84.1331 2.73 84.1331 3.19C84.1331 3.59 84.0531 3.99 83.8931 4.39C83.7331 4.79 83.5231 5.12 83.2631 5.38C82.9631 5.36 82.5131 5.35 81.9131 5.35C81.5331 5.35 80.8431 5.37 79.8431 5.41L78.2531 5.44C78.3531 4.86 78.1131 6.21 77.5331 9.49L76.9331 12.91C76.7331 14.09 76.5231 15.64 76.3031 17.56C76.1031 19.2 75.9231 20.35 75.7631 21.01C75.6231 21.67 75.3931 22 75.0731 22C74.6131 22 74.0631 21.84 73.4231 21.52C72.8031 21.18 72.2531 20.78 71.7731 20.32C71.3131 19.86 71.0831 19.48 71.0831 19.18C71.0631 18.72 71.3031 17.36 71.8031 15.1C72.1831 13.2 72.4531 11.79 72.6131 10.87C72.6131 10.91 72.7731 10.08 73.0931 8.38C73.3731 6.86 73.5431 5.93 73.6031 5.59L68.9231 6.16C68.5431 5.96 68.2331 5.67 67.9931 5.29C67.7731 4.89 67.6631 4.46 67.6631 4C67.6631 3.2 67.9731 2.49 68.5931 1.87C69.7331 1.71 71.1531 1.61 72.8531 1.57C74.5731 1.51 75.5931 1.47 75.9131 1.45C78.0131 1.39 79.5431 1.34 80.5031 1.3C81.4831 1.24 82.3131 1.14 82.9931 0.999999ZM103.298 22.18C101.878 21.36 100.618 20.34 99.5184 19.12C98.4184 17.9 97.5284 16.51 96.8484 14.95L96.7284 16.21C96.5284 18.15 96.3284 19.6 96.1284 20.56C95.9484 21.52 95.6884 22 95.3484 22C94.8884 22 94.3384 21.83 93.6984 21.49C93.0784 21.15 92.5284 20.75 92.0484 20.29C91.5884 19.83 91.3584 19.45 91.3584 19.15C91.3584 18.63 91.8484 15.98 92.8284 11.2C92.9484 10.64 93.1384 9.69 93.3984 8.35C93.6784 6.99 93.8684 6.01 93.9684 5.41L92.8584 5.59C92.2384 5.01 91.9284 4.28 91.9284 3.4C91.9284 2.78 92.0984 2.14 92.4384 1.48C94.0584 1.06 95.6984 0.849999 97.3584 0.849999C99.1184 0.849999 100.748 1.08 102.248 1.54C103.768 2 104.998 2.71 105.938 3.67C106.878 4.61 107.348 5.79 107.348 7.21C107.348 8.87 106.698 10.3 105.398 11.5C104.098 12.68 102.188 13.47 99.6684 13.87C100.668 14.81 101.668 15.57 102.668 16.15C103.688 16.71 104.968 17.25 106.508 17.77C106.588 18.09 106.628 18.44 106.628 18.82C106.628 19.74 106.348 20.5 105.788 21.1C105.228 21.7 104.398 22.06 103.298 22.18ZM97.4184 10.96C98.9984 10.8 100.288 10.38 101.288 9.7C102.308 9.02 102.818 8.21 102.818 7.27C102.818 6.67 102.518 6.17 101.918 5.77C101.338 5.35 100.548 5.14 99.5484 5.14C99.1884 5.14 98.7984 5.17 98.3784 5.23C98.0584 7.07 97.9084 7.95 97.9284 7.87C97.7484 8.85 97.5784 9.88 97.4184 10.96ZM122.167 0.999999C122.547 1.22 122.827 1.53 123.007 1.93C123.207 2.31 123.307 2.73 123.307 3.19C123.307 3.59 123.227 3.99 123.067 4.39C122.907 4.79 122.697 5.12 122.437 5.38C119.857 5.42 117.707 5.52 115.987 5.68C115.647 6.9 115.327 8.26 115.027 9.76C117.027 9.6 118.717 9.36 120.097 9.04C120.497 9.28 120.797 9.6 120.997 10C121.217 10.38 121.327 10.8 121.327 11.26C121.327 11.68 121.237 12.08 121.057 12.46C120.897 12.82 120.667 13.11 120.367 13.33C119.987 13.37 119.617 13.4 119.257 13.42C118.897 13.44 118.547 13.46 118.207 13.48L114.337 13.75L113.797 16.45L113.497 17.89C114.717 17.77 115.817 17.61 116.797 17.41C117.797 17.19 118.847 16.89 119.947 16.51C120.507 16.77 120.937 17.14 121.237 17.62C121.557 18.08 121.717 18.59 121.717 19.15C121.717 19.95 121.407 20.66 120.787 21.28C119.547 21.52 118.157 21.7 116.617 21.82C115.077 21.94 113.647 22 112.327 22C111.967 22 111.497 21.82 110.917 21.46C110.337 21.1 109.817 20.68 109.357 20.2C108.917 19.72 108.697 19.31 108.697 18.97C108.697 18.67 108.927 17.51 109.387 15.49C109.727 14.01 110.057 12.47 110.377 10.87C110.597 9.77 110.707 9.22 110.707 9.22C111.027 7.66 111.237 6.53 111.337 5.83L110.077 5.92C109.697 5.72 109.387 5.43 109.147 5.05C108.927 4.65 108.817 4.22 108.817 3.76C108.817 2.96 109.127 2.25 109.747 1.63C112.487 1.59 114.867 1.53 116.887 1.45C118.927 1.37 120.687 1.22 122.167 0.999999ZM137.722 14.53C137.742 14.85 137.812 15.66 137.932 16.96C138.072 18.24 138.142 19.31 138.142 20.17C138.142 21.29 138.012 21.89 137.752 21.97C137.672 21.99 137.542 22 137.362 22C136.922 22 136.372 21.9 135.712 21.7C135.072 21.48 134.492 21.21 133.972 20.89C133.472 20.57 133.182 20.26 133.102 19.96C133.022 19.66 132.982 18.4 132.982 16.18C130.822 16.44 129.402 16.6 128.722 16.66C128.182 18.24 127.562 19.97 126.862 21.85C126.322 21.97 125.822 22.03 125.362 22.03C124.562 22.03 123.882 21.84 123.322 21.46C122.782 21.06 122.422 20.46 122.242 19.66L122.842 18.31C125.042 13.41 126.942 9.3 128.542 5.98C130.162 2.66 131.212 0.999999 131.692 0.999999C132.072 0.999999 132.622 1.14 133.342 1.42C134.082 1.7 134.742 2.04 135.322 2.44C135.922 2.84 136.262 3.2 136.342 3.52C136.482 4.08 136.672 5.25 136.912 7.03C137.152 8.81 137.342 10.53 137.482 12.19L137.722 14.53ZM132.892 5.68C132.012 7.76 131.142 9.99 130.282 12.37C131.202 12.31 132.112 12.22 133.012 12.1C133.012 9.34 132.972 7.2 132.892 5.68ZM142.991 0.699999C145.411 0.899999 147.651 1.5 149.711 2.5C151.771 3.5 153.401 4.76 154.601 6.28C155.801 7.78 156.401 9.36 156.401 11.02C156.401 12.48 155.761 14.09 154.481 15.85C153.201 17.61 151.641 19.1 149.801 20.32C147.981 21.54 146.321 22.15 144.821 22.15C144.321 22.15 143.681 21.9 142.901 21.4C142.141 20.9 141.471 20.33 140.891 19.69C140.311 19.03 140.021 18.51 140.021 18.13C140.021 17.79 140.221 16.84 140.621 15.28C141.021 13.66 141.351 12.2 141.611 10.9C141.711 10.4 141.931 9.52 142.271 8.26C142.311 8.08 142.411 7.72 142.571 7.18C142.731 6.62 142.851 6.11 142.931 5.65L141.701 5.59C141.381 4.95 141.221 4.31 141.221 3.67C141.221 3.07 141.371 2.52 141.671 2.02C141.971 1.5 142.411 1.06 142.991 0.699999ZM144.821 18.22C146.821 17.18 148.481 15.91 149.801 14.41C151.141 12.91 151.811 11.5 151.811 10.18C151.811 9.4 151.341 8.65 150.401 7.93C149.481 7.21 148.421 6.73 147.221 6.49C146.981 7.71 146.621 9.46 146.141 11.74C145.541 14.58 145.101 16.74 144.821 18.22ZM170.318 0.999999C170.698 1.22 170.978 1.53 171.158 1.93C171.358 2.31 171.458 2.73 171.458 3.19C171.458 3.59 171.378 3.99 171.218 4.39C171.058 4.79 170.848 5.12 170.588 5.38C168.008 5.42 165.858 5.52 164.138 5.68C163.798 6.9 163.478 8.26 163.178 9.76C165.178 9.6 166.868 9.36 168.248 9.04C168.648 9.28 168.948 9.6 169.148 10C169.368 10.38 169.478 10.8 169.478 11.26C169.478 11.68 169.388 12.08 169.208 12.46C169.048 12.82 168.818 13.11 168.518 13.33C168.138 13.37 167.768 13.4 167.408 13.42C167.048 13.44 166.698 13.46 166.358 13.48L162.488 13.75L161.948 16.45L161.648 17.89C162.868 17.77 163.968 17.61 164.948 17.41C165.948 17.19 166.998 16.89 168.098 16.51C168.658 16.77 169.088 17.14 169.388 17.62C169.708 18.08 169.868 18.59 169.868 19.15C169.868 19.95 169.558 20.66 168.938 21.28C167.698 21.52 166.308 21.7 164.768 21.82C163.228 21.94 161.798 22 160.478 22C160.118 22 159.648 21.82 159.068 21.46C158.488 21.1 157.968 20.68 157.508 20.2C157.068 19.72 156.848 19.31 156.848 18.97C156.848 18.67 157.078 17.51 157.538 15.49C157.878 14.01 158.208 12.47 158.528 10.87C158.748 9.77 158.858 9.22 158.858 9.22C159.178 7.66 159.388 6.53 159.488 5.83L158.228 5.92C157.848 5.72 157.538 5.43 157.298 5.05C157.078 4.65 156.968 4.22 156.968 3.76C156.968 2.96 157.278 2.25 157.898 1.63C160.638 1.59 163.018 1.53 165.038 1.45C167.078 1.37 168.838 1.22 170.318 0.999999ZM184.41 22.18C182.99 21.36 181.73 20.34 180.63 19.12C179.53 17.9 178.64 16.51 177.96 14.95L177.84 16.21C177.64 18.15 177.44 19.6 177.24 20.56C177.06 21.52 176.8 22 176.46 22C176 22 175.45 21.83 174.81 21.49C174.19 21.15 173.64 20.75 173.16 20.29C172.7 19.83 172.47 19.45 172.47 19.15C172.47 18.63 172.96 15.98 173.94 11.2C174.06 10.64 174.25 9.69 174.51 8.35C174.79 6.99 174.98 6.01 175.08 5.41L173.97 5.59C173.35 5.01 173.04 4.28 173.04 3.4C173.04 2.78 173.21 2.14 173.55 1.48C175.17 1.06 176.81 0.849999 178.47 0.849999C180.23 0.849999 181.86 1.08 183.36 1.54C184.88 2 186.11 2.71 187.05 3.67C187.99 4.61 188.46 5.79 188.46 7.21C188.46 8.87 187.81 10.3 186.51 11.5C185.21 12.68 183.3 13.47 180.78 13.87C181.78 14.81 182.78 15.57 183.78 16.15C184.8 16.71 186.08 17.25 187.62 17.77C187.7 18.09 187.74 18.44 187.74 18.82C187.74 19.74 187.46 20.5 186.9 21.1C186.34 21.7 185.51 22.06 184.41 22.18ZM178.53 10.96C180.11 10.8 181.4 10.38 182.4 9.7C183.42 9.02 183.93 8.21 183.93 7.27C183.93 6.67 183.63 6.17 183.03 5.77C182.45 5.35 181.66 5.14 180.66 5.14C180.3 5.14 179.91 5.17 179.49 5.23C179.17 7.07 179.02 7.95 179.04 7.87C178.86 8.85 178.69 9.88 178.53 10.96Z" fill="#B46AFE"/>
</svg>
