<svg width="44" height="49" viewBox="0 0 44 49" fill="none" xmlns="http://www.w3.org/2000/svg">
<rect width="44" height="40" rx="4" fill="#9A9A9A"/>
<path d="M33 28.0784C33 31.0245 28.0751 32 22 32C15.9249 32 11 31.0245 11 28.0784C11 25.7557 14.061 23.7798 18.3333 23.0474C19.4802 22.8509 20.7143 24.0775 22 24.0775C23.6442 24.0775 24.9991 22.7338 26.4 23.0474C30.1751 23.8925 33 25.9296 33 28.0784Z" fill="white"/>
<path d="M9 15H19" stroke="white" stroke-width="1.5" stroke-linecap="round"/>
<circle cx="17" cy="19" r="2" fill="white"/>
<path d="M25 15H35" stroke="white" stroke-width="1.5" stroke-linecap="round"/>
<circle cx="27" cy="19" r="2" fill="white"/>
<path d="M22 49L16.8038 40L27.1962 40L22 49Z" fill="#9A9A9A"/>
</svg>